PathFileType	4	(X/Y/Z)	C:/Users/opensim2020/Desktop/walking_exp_matlab/subject06_walking12_straigt_01.trc																																																																																																																																														
DataRate	CameraRate	NumFrames	NumMarkers	Units	OrigDataRate	OrigDataStartFrame	OrigNumFrames																																																																																																																																										
100	100	7	48	mm	100	868	196																																																																																																																																										
Frame#	Time	LFHD			RFHD			LBHD			RBHD			C7			T10			CLAV			STRN			RBAK			LSHO			LUPA			LELB			LFRM			LWRA			LWRB			LFIN			RSHO			RUPA			RELB			RFRM			RWRA			RWRB			RFIN			LASI			RASI			LPSI			RPSI			LTHI			LKNE			LTIB			LANK			LHEE			LTOE			RTHI			RKNE			RTIB			RANK			RHEE			RTOE			*39			*40			*41			*42			*43			*44			*45			*46			*47		
		X1	Y1	Z1	X2	Y2	Z2	X3	Y3	Z3	X4	Y4	Z4	X5	Y5	Z5	X6	Y6	Z6	X7	Y7	Z7	X8	Y8	Z8	X9	Y9	Z9	X10	Y10	Z10	X11	Y11	Z11	X12	Y12	Z12	X13	Y13	Z13	X14	Y14	Z14	X15	Y15	Z15	X16	Y16	Z16	X17	Y17	Z17	X18	Y18	Z18	X19	Y19	Z19	X20	Y20	Z20	X21	Y21	Z21	X22	Y22	Z22	X23	Y23	Z23	X24	Y24	Z24	X25	Y25	Z25	X26	Y26	Z26	X27	Y27	Z27	X28	Y28	Z28	X29	Y29	Z29	X30	Y30	Z30	X31	Y31	Z31	X32	Y32	Z32	X33	Y33	Z33	X34	Y34	Z34	X35	Y35	Z35	X36	Y36	Z36	X37	Y37	Z37	X38	Y38	Z38	X39	Y39	Z39	X40	Y40	Z40	X41	Y41	Z41	X42	Y42	Z42	X43	Y43	Z43	X44	Y44	Z44	X45	Y45	Z45	X46	Y46	Z46	X47	Y47	Z47	X48	Y48	Z48
																																																																																																																																																	
74	0.73	-170.32816	1657.16309	-1063.50598	-173.80759	1643.76672	-932.47205	-306.31354	1612.24536	-1068.32178	-308.28818	1603.86182	-939.24713	-320.18393	1452.2489	-1012.45056	-370.57434	1125.05249	-1000.27576	-214.2198	1368.1366	-1011.87848	-183.52629	1191.672	-1015.72156	-402.78061	1286.55249	-929.67413	-270.31137	1404.7782	-1173.17493	-316.24094	1209.86377	-1245.276	-348.59146	1102.28162	-1255.21704	-358.91385	951.25568	-1274.69055	-332.26315	826.72772	-1225.96021	-387.20651	835.29828	-1271.21533	-367.15881	746.48761	-1265.85266	-259.68161	1406.48645	-851.66266	-294.38242	1210.68335	-759.07214	-277.63611	1090.03723	-744.45209	-238.03259	977.0163	-729.73279	-148.6116	858.07739	-767.05487	-199.8344	844.67017	-726.22589	-144.47107	781.37775	-726.38989	-194.86717	959.86267	-1107.62976	-204.46387	960.56366	-888.41565	-354.12439	989.0083	-1087.27087	-353.62729	994.25763	-918.46027	-198.10028	653.54205	-1177.47742	-142.72041	500.72528	-1149.29529	-164.7267	247.45631	-1139.6748	-151.92691	74.90834	-1101.18506	-184.37398	58.23344	-1049.36621	-9.35546	51.5064	-1115.68555	-300.37952	629.91418	-849.3761	-318.93793	505.43893	-872.86371	-412.48322	253.51964	-890.37622	-454.35535	71.27721	-941.61792	-496.03677	50.09454	-987.61859	-302.8895	32.85403	-942.66974	-268.65778	1701.18604	-1006.06567	NaN	NaN	NaN	NaN	NaN	NaN	NaN	NaN	NaN	NaN	NaN	NaN	NaN	NaN	NaN	NaN	NaN	NaN	NaN	NaN	NaN	NaN	NaN	NaN
75	0.74	-160.73105	1655.53088	-1064.51843	-164.09193	1642.45654	-933.40991	-296.8103	1610.75146	-1069.08472	-298.58545	1602.64612	-939.94446	-310.63257	1450.77661	-1012.76801	-360.724	1123.47229	-1000.35211	-204.6983	1366.69128	-1012.2298	-173.8217	1190.30237	-1015.72937	-392.95038	1285.16528	-929.70026	-261.22937	1403.14441	-1173.43909	-308.13428	1208.5874	-1245.28894	-341.08627	1101.06799	-1254.95923	-352.29626	950.13251	-1274.24792	-325.80576	825.52911	-1225.60217	-381.05362	834.29309	-1270.46753	-361.40094	745.37476	-1265.08911	-250.1281	1405.29236	-852.00494	-284.34955	1209.58398	-759.14355	-267.47751	1088.9519	-744.56293	-227.39832	976.16095	-729.89276	-137.44875	857.68512	-767.56952	-188.34659	844.00537	-726.49933	-132.85962	781.03571	-727.09521	-184.57982	958.39673	-1107.14014	-195.00684	959.11981	-888.0119	-343.84048	987.62842	-1087.47302	-343.86667	993.02234	-918.70306	-189.58522	651.66632	-1177.6842	-133.46988	499.19495	-1149.02612	-144.21149	245.24919	-1140.276	-122.37972	73.26581	-1102.39954	-154.28001	55.03751	-1051.08362	21.56581	56.25635	-1115.79053	-293.34448	629.03796	-849.35931	-313.09698	504.64096	-872.87036	-409.742	253.65125	-890.67987	-453.76706	72.30882	-941.86194	-495.77264	51.73075	-987.68896	-302.9487	32.88316	-942.76184	-258.92511	1699.89392	-1007.07452	NaN	NaN	NaN	NaN	NaN	NaN	NaN	NaN	NaN	NaN	NaN	NaN	NaN	NaN	NaN	NaN	NaN	NaN	NaN	NaN	NaN	NaN	NaN	NaN
76	0.75	-151.11838	1653.77454	-1065.70605	-154.35239	1641.146	-934.48077	-287.20209	1609.1322	-1069.83264	-288.84918	1601.42493	-940.7085	-301.09518	1449.11768	-1013.09656	-350.81537	1121.83081	-1000.61206	-195.09663	1365.20544	-1012.58472	-164.03911	1188.78223	-1015.79901	-383.35553	1283.64404	-929.83087	-252.04715	1401.41858	-1173.79126	-299.92001	1207.0697	-1245.08435	-333.46838	1099.80823	-1254.52502	-345.34119	948.88831	-1273.85303	-318.78284	824.23627	-1225.30444	-374.54037	833.15088	-1269.7019	-355.11377	744.13354	-1264.51538	-240.49043	1403.94153	-852.36218	-274.39557	1208.2417	-759.27954	-257.45581	1087.70715	-744.68713	-216.88065	975.08765	-730.08197	-126.56506	857.03827	-768.04706	-177.33505	843.06616	-727.03741	-121.47978	780.33301	-727.49438	-174.25121	956.71265	-1106.81006	-185.52869	957.57599	-887.72406	-333.50269	986.1601	-1087.8468	-334.14322	991.75739	-919.00629	-180.99886	649.49988	-1177.92273	-124.19648	497.63629	-1148.70593	-124.05405	243.57321	-1140.95081	-93.61559	72.504	-1103.72681	-124.85249	52.61997	-1052.94141	51.15533	62.06884	-1116.1272	-286.28638	628.06836	-849.38501	-307.14532	503.72034	-872.63098	-406.83801	253.8286	-890.88977	-453.4827	73.38288	-942.10864	-495.63025	53.2658	-987.96649	-303.00409	32.885	-942.69849	-249.21359	1698.38806	-1008.12915	NaN	NaN	NaN	NaN	NaN	NaN	NaN	NaN	NaN	NaN	NaN	NaN	NaN	NaN	NaN	NaN	NaN	NaN	NaN	NaN	NaN	NaN	NaN	NaN
77	0.76	-141.51357	1652.17859	-1066.68958	-144.554	1639.73596	-935.54407	-277.70999	1607.42383	-1070.6449	-279.12054	1600.02966	-941.49048	-291.54807	1447.5437	-1013.51709	-340.85657	1120.17212	-1001.008	-185.40131	1363.55408	-1013.07886	-154.23415	1187.18823	-1016.01123	-373.73642	1281.89233	-930.07019	-242.78221	1399.62451	-1174.22754	-291.5372	1205.54443	-1245.18164	-325.60779	1098.43445	-1254.52832	-337.9502	947.44421	-1273.46851	-312.10742	822.59644	-1224.99988	-367.65152	831.82513	-1269.03772	-348.45062	742.73419	-1263.93945	-230.74068	1402.45593	-852.76422	-264.53674	1206.75732	-759.53741	-247.53159	1086.27966	-744.83789	-206.51241	973.80194	-730.32635	-115.91005	856.06238	-768.63654	-166.41357	842.06073	-727.3194	-110.27905	779.51953	-728.05853	-163.73856	954.89893	-1106.51392	-175.97046	956.02991	-887.47839	-322.97266	984.43799	-1088.26208	-324.36847	990.34448	-919.4165	-172.38428	647.19885	-1178.15869	-114.45686	496.17484	-1148.36633	-104.12801	242.31233	-1141.66394	-65.79787	72.53828	-1104.96045	-96.26434	51.10755	-1053.82874	79.5398	68.65783	-1116.69617	-278.91696	626.99438	-849.41901	-300.79495	502.7356	-872.74695	-403.95438	254.04533	-890.99963	-452.87784	74.38934	-942.32501	-495.25381	54.81136	-988.13916	-303.33124	32.88283	-943.05994	-239.54831	1696.82349	-1009.23145	NaN	NaN	NaN	NaN	NaN	NaN	NaN	NaN	NaN	NaN	NaN	NaN	NaN	NaN	NaN	NaN	NaN	NaN	NaN	NaN	NaN	NaN	NaN	NaN
78	0.77	-131.98503	1650.40662	-1067.85327	-134.90662	1638.21997	-936.44263	-268.11987	1605.59082	-1071.40283	-269.31451	1598.57227	-942.24036	-281.80405	1445.81543	-1013.96155	-330.82864	1118.35791	-1001.54401	-175.69701	1361.92139	-1013.49811	-144.40442	1185.52014	-1016.22656	-363.92828	1280.12793	-930.40601	-233.45775	1397.88525	-1174.82544	-282.9566	1203.83691	-1245.17505	-317.397	1096.83545	-1254.36365	-330.42291	945.9054	-1273.22485	-304.18024	821.1488	-1225.01282	-360.37506	830.32465	-1268.41907	-341.30151	741.25165	-1263.54822	-220.9335	1400.85474	-853.21503	-254.68852	1205.15369	-759.82275	-237.60246	1084.72107	-744.99152	-196.31013	972.39453	-730.56799	-105.42234	854.92487	-769.2027	-155.77534	840.83075	-727.5968	-99.58554	778.40326	-728.47119	-153.21298	952.92627	-1106.2793	-166.39873	954.42572	-887.20966	-312.50101	982.79944	-1088.76416	-314.39322	988.86023	-920.0202	-163.5551	644.9129	-1178.47534	-104.56198	494.78275	-1148.35681	-84.41985	241.27315	-1142.16687	-39.17769	73.21081	-1106.01904	-69.02901	50.36464	-1055.02673	106.2973	75.42986	-1117.42236	-271.44455	625.84979	-849.46393	-294.10071	501.67014	-872.73535	-400.7171	254.24376	-891.06702	-452.18845	75.50001	-942.52826	-494.79675	56.42787	-988.35828	-303.28302	32.75352	-943.15533	-229.94229	1695.15027	-1010.30164	NaN	NaN	NaN	NaN	NaN	NaN	NaN	NaN	NaN	NaN	NaN	NaN	NaN	NaN	NaN	NaN	NaN	NaN	NaN	NaN	NaN	NaN	NaN	NaN
79	0.78	-122.45993	1648.50977	-1069.05896	-125.03426	1636.83569	-937.71283	-258.54767	1603.74658	-1072.24609	-259.56479	1596.9613	-943.00098	-272.01599	1444.12476	-1014.4801	-320.69482	1116.48206	-1002.12268	-165.87782	1360.2511	-1014.08136	-134.61429	1183.82751	-1016.52515	-353.97272	1278.45728	-930.82037	-224.00963	1395.82422	-1175.29443	-274.11035	1202.0946	-1245.35474	-308.96332	1095.18042	-1254.34143	-322.39258	944.28491	-1273.06616	-295.9989	819.47919	-1225.00464	-352.66382	828.76855	-1267.99512	-333.63535	739.66547	-1263.22888	-211.00797	1399.20264	-853.6355	-244.93062	1203.49792	-760.11542	-227.77408	1083.09302	-745.20605	-186.25343	970.87292	-730.89984	-95.24265	853.54688	-769.78577	-145.44043	839.47156	-727.93713	-89.13792	777.12573	-728.87823	-142.62845	950.93457	-1106.05945	-156.76343	952.80389	-886.89154	-301.87723	981.06482	-1089.33704	-304.66602	987.38757	-920.51611	-154.33846	642.74799	-1179.02087	-94.31045	493.37183	-1148.54321	-65.01511	240.85825	-1143.31506	-13.96876	74.16489	-1106.77014	-43.03989	50.22794	-1055.98254	131.48393	81.72422	-1117.70886	-263.8526	624.6991	-849.46985	-287.47745	500.65125	-872.67883	-397.2619	254.49907	-891.11688	-451.4682	76.6497	-942.7865	-494.46683	58.05649	-988.53961	-303.28619	32.65514	-943.22394	-220.37288	1693.4707	-1011.35052	NaN	NaN	NaN	NaN	NaN	NaN	NaN	NaN	NaN	NaN	NaN	NaN	NaN	NaN	NaN	NaN	NaN	NaN	NaN	NaN	NaN	NaN	NaN	NaN
80	0.79	-112.9276	1646.61365	-1070.24231	-115.3123	1635.40979	-938.64478	-248.85037	1601.86755	-1073.06079	-249.41481	1595.37659	-943.71893	-262.07254	1442.45068	-1015.0462	-310.57797	1114.67322	-1002.76404	-156.00281	1358.51282	-1014.67621	-124.72281	1182.13318	-1016.82684	-344.10828	1276.77209	-931.31189	-214.40315	1393.88623	-1175.89648	-265.01517	1200.25061	-1245.53076	-300.22748	1093.42651	-1254.3158	-314.0748	942.55939	-1272.90613	-287.86893	817.67249	-1225.24402	-344.66251	827.16772	-1267.72009	-325.57483	738.0094	-1263.12634	-200.96112	1397.52783	-854.14685	-235.30893	1201.79553	-760.44141	-217.92345	1081.42261	-745.43567	-176.26904	969.22333	-731.2644	-85.32379	851.96405	-770.3515	-135.30351	837.91003	-728.29181	-78.95757	775.7381	-729.25739	-131.87366	948.96539	-1105.88257	-146.93781	951.15411	-886.67554	-291.31906	979.37927	-1089.91089	-294.82422	985.89581	-921.00049	-144.6476	640.81293	-1179.68433	-83.88269	491.97977	-1149.05347	-46.24867	240.53261	-1144.17432	9.60921	75.57796	-1107.57336	-18.76155	50.56083	-1056.78235	155.06937	87.49164	-1117.70117	-255.97914	623.65051	-849.52887	-280.35632	499.61459	-872.62286	-393.62665	254.85977	-891.26398	-450.69427	77.99391	-943.02295	-493.97839	60.04092	-988.80872	-303.21381	32.49229	-943.33148	-210.67279	1691.83313	-1012.45081	NaN	NaN	NaN	NaN	NaN	NaN	NaN	NaN	NaN	NaN	NaN	NaN	NaN	NaN	NaN	NaN	NaN	NaN	NaN	NaN	NaN	NaN	NaN	NaN
